<?xml version="1.0" standalone="no"?>
<!DOCTYPE svg PUBLIC "-//W3C//DTD SVG 20010904//EN"
 "http://www.w3.org/TR/2001/REC-SVG-20010904/DTD/svg10.dtd">
<svg version="1.0" xmlns="http://www.w3.org/2000/svg"
 width="460.000000pt" height="460.000000pt" viewBox="0 0 460.000000 460.000000"
 preserveAspectRatio="xMidYMid meet">
<metadata>
Created by potrace 1.11, written by Peter Selinger 2001-2013
</metadata>
<g transform="translate(0.000000,460.000000) scale(0.100000,-0.100000)"
fill="#000000" stroke="none">
<path d="M2498 4504 c-2 -1 -45 -4 -97 -5 -52 -2 -122 -9 -155 -16 -34 -8 -93
-20 -131 -28 -39 -7 -83 -18 -98 -24 -15 -6 -27 -9 -27 -6 0 2 -30 -7 -67 -22
-38 -14 -88 -31 -113 -39 -25 -7 -54 -19 -63 -27 -19 -13 -19 -21 8 -157 7
-36 25 -176 31 -240 3 -30 10 -72 16 -92 10 -33 13 -35 32 -25 11 7 24 17 28
22 4 6 8 6 8 2 0 -5 29 7 65 27 36 20 73 36 81 36 8 0 28 7 43 15 16 8 39 16
52 19 13 3 47 12 74 21 102 34 184 45 340 50 236 6 496 -20 540 -55 6 -5 15
-9 20 -10 21 -2 60 -13 70 -19 6 -3 15 -6 21 -7 15 -2 128 -55 134 -63 3 -3
26 -17 53 -30 26 -13 52 -30 58 -38 6 -7 16 -13 21 -13 9 0 34 -19 108 -83
165 -142 289 -155 431 -44 34 26 88 178 72 200 -6 6 -13 27 -16 45 -4 19 -19
50 -33 70 -25 34 -215 179 -322 246 -26 16 -49 33 -50 37 -2 5 -7 7 -11 5 -4
-3 -45 17 -91 44 -46 28 -87 50 -92 50 -4 0 -27 9 -51 19 -23 11 -67 27 -97
36 -30 9 -69 23 -87 31 -17 8 -44 14 -60 14 -16 0 -54 7 -84 16 -59 18 -68 19
-184 29 -80 7 -372 14 -377 9z"/>
<path d="M1389 4272 c-30 -15 -87 -39 -126 -52 -40 -14 -73 -28 -73 -32 0 -5
-9 -8 -20 -8 -11 0 -28 -4 -38 -9 -22 -12 -131 -61 -157 -70 -11 -4 -40 -17
-65 -28 -52 -24 -129 -54 -133 -51 -1 1 -20 -10 -42 -24 -22 -13 -49 -27 -60
-31 -104 -32 -205 -82 -205 -101 0 -17 33 -46 73 -66 18 -8 66 -37 106 -64 41
-27 94 -57 118 -67 39 -16 48 -27 44 -51 0 -5 3 -8 8 -8 14 0 7 -55 -12 -83
-9 -14 -17 -31 -17 -36 0 -5 -3 -11 -7 -13 -11 -4 -63 -85 -63 -96 0 -5 -13
-27 -29 -49 -16 -23 -27 -44 -24 -47 4 -3 1 -6 -5 -6 -6 0 -9 -7 -5 -16 3 -10
0 -22 -8 -28 -8 -6 -25 -42 -38 -81 -13 -38 -27 -74 -31 -80 -4 -5 -13 -32
-20 -60 -7 -27 -16 -54 -20 -60 -4 -5 -10 -23 -13 -40 -3 -16 -11 -50 -17 -75
-6 -25 -13 -54 -16 -65 -2 -11 -9 -45 -15 -75 -17 -80 -19 -109 -25 -387 -5
-209 -3 -265 10 -325 8 -40 20 -104 25 -143 10 -80 11 -85 40 -180 50 -162 65
-206 73 -211 4 -3 8 -12 8 -20 0 -12 27 -76 78 -184 10 -19 36 -67 60 -107 23
-39 42 -76 42 -82 0 -6 4 -11 9 -11 12 0 84 -118 84 -137 0 -7 6 -13 13 -13 7
0 17 -6 21 -14 14 -25 115 -138 178 -198 102 -99 128 -122 178 -158 88 -65
155 -117 172 -133 9 -9 25 -17 34 -17 10 0 24 -6 30 -13 6 -8 41 -29 78 -47
38 -19 80 -42 95 -53 15 -10 36 -20 45 -22 10 -2 50 -16 88 -30 39 -15 86 -31
105 -37 19 -5 39 -14 44 -19 6 -5 20 -9 32 -9 13 0 33 -4 46 -9 34 -13 34 -13
85 -23 98 -19 160 -29 218 -36 101 -12 550 -5 550 8 0 1 11 3 25 5 73 9 206
37 214 45 6 6 23 10 38 10 16 0 42 7 58 15 17 9 31 15 32 14 9 -6 63 16 193
76 39 18 88 39 110 46 22 8 45 19 50 25 16 16 93 64 105 64 5 0 10 5 10 10 0
6 6 10 13 10 7 0 28 13 47 30 19 16 40 29 46 30 6 0 46 35 90 78 87 84 104
117 104 209 0 68 -49 165 -99 198 -85 56 -202 52 -290 -12 -77 -55 -143 -98
-211 -139 -36 -21 -72 -43 -80 -49 -8 -6 -46 -24 -85 -40 -38 -15 -90 -37
-115 -48 -24 -11 -58 -22 -75 -24 -16 -3 -37 -9 -46 -14 -9 -4 -59 -18 -110
-30 -71 -17 -137 -23 -272 -27 -234 -6 -378 12 -517 63 -25 9 -55 18 -66 21
-12 2 -57 20 -100 40 -44 20 -88 40 -99 45 -51 22 -229 143 -247 167 -7 10
-30 28 -51 41 -21 13 -74 64 -119 114 -45 51 -84 94 -88 97 -3 3 -14 18 -25
34 -11 16 -29 41 -40 56 -74 102 -120 184 -190 345 -7 17 -20 47 -29 67 -15
34 -40 121 -68 233 -33 139 -46 490 -22 637 7 46 16 101 19 123 8 55 27 138
36 150 5 8 36 104 45 140 7 32 42 94 49 87 5 -4 5 -2 2 4 -3 6 2 27 13 46 10
20 16 39 13 42 -4 3 -2 6 4 6 6 0 13 11 17 23 3 13 19 39 36 58 16 19 30 41
30 50 0 18 31 49 48 49 7 0 12 4 12 9 0 19 75 -2 123 -34 29 -19 55 -35 60
-35 4 0 31 -16 60 -35 28 -19 61 -35 73 -35 42 0 45 18 29 153 -8 69 -17 136
-19 149 -3 13 -8 48 -10 78 -4 51 -11 103 -36 285 -11 73 -15 113 -25 205 -3
30 -8 69 -10 85 -3 17 -7 50 -10 75 -3 32 -12 51 -30 68 -34 29 -62 28 -126
-6z"/>
<path d="M2442 3458 c-5 -7 -35 -62 -67 -123 -31 -60 -61 -114 -65 -120 -12
-16 -59 -102 -118 -215 -30 -58 -60 -112 -66 -120 -7 -8 -40 -73 -75 -145 -34
-71 -66 -138 -72 -147 -32 -60 -84 -176 -94 -208 -4 -14 -14 -34 -21 -45 -8
-11 -14 -26 -14 -35 0 -9 -8 -32 -19 -53 -10 -20 -31 -74 -46 -119 -15 -46
-33 -101 -41 -123 -23 -70 -40 -172 -37 -225 4 -85 49 -229 97 -318 44 -81
184 -242 211 -242 7 0 20 -9 30 -20 20 -22 120 -71 210 -103 105 -38 403 -23
485 24 8 5 34 17 57 28 23 11 62 33 86 50 62 42 182 165 197 201 7 16 16 30
21 30 5 0 9 5 9 10 0 6 8 22 17 37 10 14 19 35 20 47 2 11 7 23 12 26 4 3 11
23 14 45 4 22 13 72 22 110 18 90 18 144 -1 225 -8 36 -18 79 -21 95 -3 17
-11 39 -18 50 -7 11 -20 45 -30 75 -10 30 -26 73 -35 95 -9 22 -27 69 -40 105
-13 36 -32 80 -42 98 -10 18 -19 44 -20 57 -1 13 -6 21 -10 19 -4 -3 -8 2 -8
11 0 14 -18 53 -30 65 -7 7 -31 53 -115 217 -40 77 -85 161 -101 185 -17 23
-38 60 -47 80 -16 33 -90 166 -117 208 -5 8 -29 52 -52 98 -23 45 -45 82 -49
82 -4 0 -11 -6 -17 -12z"/>
</g>
</svg>
